<svg width="24" height="24" viewBox="0 0 24 24" fill="none" xmlns="http://www.w3.org/2000/svg">
<path d="M18.14 16.7C17.23 18.21 16.08 17.73 15 17.09C13.92 16.45 12.9 15.68 12.25 16.59C11.54 17.37 12.09 18.62 12.37 19.72C12.65 20.83 12.67 21.79 10.9 22C9.50002 21.81 9.58002 20.65 9.81002 19.42C10.04 18.19 10.4 16.89 9.50002 16.43C8.78002 15.95 8.28002 16.78 7.65002 17.6C7.00002 18.41 6.26002 19.2 5.04002 18.62C3.94002 17.71 4.36002 17.18 4.94002 16.5C5.52002 15.82 6.27002 14.91 5.84002 13.31C5.66002 12.66 4.76002 12.81 3.87002 12.79C3.00002 12.77 2.12002 12.59 2.03002 11.29C1.96002 10.5 2.55002 10.18 3.16002 9.92997C3.78002 9.67997 4.41002 9.49997 4.42002 8.86997C4.45002 8.25997 4.04002 7.82997 3.78002 7.37997C3.52002 6.92997 3.41002 6.45997 4.03002 5.75997C5.08002 4.89997 5.92002 5.62997 6.76002 6.41997C7.60002 7.20997 8.43002 8.03997 9.46002 7.38997C10.28 6.84997 9.53002 5.89997 8.95002 4.96997C8.37002 4.03997 7.96002 3.14997 9.46002 2.73997C10.76 2.37997 11.26 3.26997 11.71 4.29997C12.17 5.32997 12.57 6.49997 13.67 6.70997C15.24 6.99997 16.38 5.15997 17.47 3.69997C18.56 2.23997 19.63 1.14997 21 2.94997C22.5 4.83997 21.07 5.71997 19.4 6.49997C17.73 7.22997 15.81 7.86997 16.27 9.27997C16.54 10.1 17.42 9.64997 18.35 9.33997C19.27 9.02997 20.26 8.85997 20.74 10.27C21.25 11.76 20.04 12.1 18.68 12.24C17.32 12.38 15.8 12.32 15.7 13C15.59 13.71 16.5 14 17.29 14.42C18.08 14.85 18.75 15.42 18.14 16.7ZM20.5 19C19.55 19 19.06 18.26 19.06 17.5C19.06 16.74 19.54 16 20.5 16C21.5 16 22 16.74 22 17.5C22 18.26 21.5 19 20.5 19Z" fill="#B1B1B1"/>
</svg>
