<svg width="24" height="24" viewBox="0 0 24 24" fill="none" xmlns="http://www.w3.org/2000/svg">
<path d="M10.22 4.9L5.4 6H5C4.46957 6 3.96086 5.78929 3.58579 5.41421C3.21071 5.03914 3 4.53043 3 4C3 3.46957 3.21071 2.96086 3.58579 2.58579C3.96086 2.21071 4.46957 2 5 2H5.4L10.26 3" stroke="#B1B1B1" stroke-width="2" stroke-linecap="round" stroke-linejoin="round"/>
<path d="M12 6C13.1046 6 14 5.10457 14 4C14 2.89543 13.1046 2 12 2C10.8954 2 10 2.89543 10 4C10 5.10457 10.8954 6 12 6Z" stroke="#B1B1B1" stroke-width="2" stroke-linecap="round" stroke-linejoin="round"/>
<path d="M13.78 4.8999L18.58 5.8999H18.98C19.5104 5.8999 20.0191 5.68919 20.3942 5.31412C20.7693 4.93904 20.98 4.43034 20.98 3.8999C20.98 3.36947 20.7693 2.86076 20.3942 2.48569C20.0191 2.11062 19.5104 1.8999 18.98 1.8999H18.58L13.66 2.8999M12 5.9999V8.9999M22 8.9999V16.9999M18 9.9999H22V15.9999H18V9.9999Z" stroke="#B1B1B1" stroke-width="2" stroke-linecap="round" stroke-linejoin="round"/>
<path d="M18 10.9998H15.4C15.0675 10.3882 14.5762 9.87759 13.9778 9.52182C13.3794 9.16605 12.6961 8.97827 12 8.97827C11.3039 8.97827 10.6206 9.16605 10.0222 9.52182C9.42384 9.87759 8.93251 10.3882 8.6 10.9998H7C4.2 10.9998 2 13.1998 2 15.9998V16.9998H6V15.9998C6 15.3998 6.4 14.9998 7 14.9998H8.6C8.93251 15.6114 9.42384 16.122 10.0222 16.4777C10.6206 16.8335 11.3039 17.0213 12 17.0213C12.6961 17.0213 13.3794 16.8335 13.9778 16.4777C14.5762 16.122 15.0675 15.6114 15.4 14.9998H18" stroke="#B1B1B1" stroke-width="2" stroke-linecap="round" stroke-linejoin="round"/>
<path d="M3.5 17C3.5 17 2 19 2 20C2 20.5304 2.21071 21.0391 2.58579 21.4142C2.96086 21.7893 3.46957 22 4 22C4.53043 22 5.03914 21.7893 5.41421 21.4142C5.78929 21.0391 6 20.5304 6 20C6 19 4.5 17 4.5 17" stroke="#B1B1B1" stroke-width="2" stroke-linecap="round" stroke-linejoin="round"/>
</svg>
