<svg width="35" height="35" viewBox="0 0 35 35" fill="none" xmlns="http://www.w3.org/2000/svg">
<path d="M17.5 26.2501C16.858 26.2502 16.2339 26.0384 15.7244 25.6477C15.215 25.2569 14.8488 24.709 14.6825 24.0889" stroke="#B1B1B1" stroke-linecap="round"/>
<path d="M15.2017 6.82357C16.1219 5.25877 16.5827 4.47565 17.2404 4.35898C17.4121 4.32793 17.5879 4.32793 17.7596 4.35898C18.4173 4.47565 18.8781 5.25877 19.7984 6.82357L22.2309 10.9594C23.9307 13.85 25.2572 16.9445 26.1786 20.1688C27.6763 25.4086 23.7431 30.625 18.2919 30.625H16.7081C11.2584 30.625 7.32377 25.4086 8.82148 20.1688C9.74282 16.9445 11.0693 13.85 12.7692 10.9594L15.2017 6.82357Z" stroke="#B1B1B1"/>
</svg>
