<svg width="30" height="60" viewBox="0 0 30 60" fill="none" xmlns="http://www.w3.org/2000/svg">
<path d="M0 4.21417C0 1.72427 2.02974 -0.328938 4.49157 0.0438271C10.7857 0.996868 16.6568 3.93624 21.2132 8.49261C26.8393 14.1187 30 22.7493 30 30.7058C30 38.6623 26.8393 46.2929 21.2132 51.919C16.6588 56.4735 10.7907 58.7569 4.49956 59.4616C2.02514 59.7388 3.8147e-06 57.6873 3.8147e-06 55.1975C3.8147e-06 52.7076 2.04129 50.7376 4.47392 50.2067C8.36914 49.3565 11.9744 47.4063 14.8374 44.5432C18.7726 40.6081 20.9833 35.2709 20.9833 29.7058C20.9833 24.1407 18.7726 18.8035 14.8374 14.8684C11.9744 12.0053 8.36913 10.0551 4.47392 9.20494C2.04129 8.67402 0 6.70407 0 4.21417Z" fill="#16DBCC"/>
</svg>
