<svg width="26" height="26" viewBox="0 0 26 26" fill="none" xmlns="http://www.w3.org/2000/svg">
<path d="M3.67708 25H22.351C22.7863 24.9966 23.2141 24.8737 23.5973 24.642C23.9806 24.4104 24.3074 24.077 24.5495 23.671C24.7915 23.265 24.9414 22.7987 24.986 22.3128C25.0306 21.8268 24.9685 21.336 24.8053 20.8832L15.3349 2.54457C15.1042 2.07659 14.7661 1.68651 14.3556 1.41489C13.9451 1.14326 13.4772 1 13.0007 1C12.5242 1 12.0563 1.14326 11.6458 1.41489C11.2353 1.68651 10.8972 2.07659 10.6665 2.54457L1.19611 20.8832C1.03597 21.3257 0.972468 21.8047 1.01091 22.2804C1.04934 22.756 1.18861 23.2144 1.41707 23.6174C1.64553 24.0203 1.95655 24.356 2.32419 24.5966C2.69182 24.8371 3.10538 24.9754 3.53035 25" stroke="#B1B1B1" stroke-width="2" stroke-linecap="round" stroke-linejoin="round"/>
<path d="M11.6802 14.5208H10.3464C9.63884 14.5208 8.96029 14.8362 8.46 15.3977C7.95971 15.9592 7.67865 16.7207 7.67865 17.5148C7.67865 18.3089 7.95971 19.0704 8.46 19.6319C8.96029 20.1934 9.63884 20.5089 10.3464 20.5089H11.6802M15.6818 14.5208V20.5089H18.3495" stroke="#B1B1B1" stroke-width="2" stroke-linecap="round" stroke-linejoin="round"/>
</svg>
